<svg width="164" height="164" viewBox="0 0 164 164" fill="none" xmlns="http://www.w3.org/2000/svg">
<rect x="7" y="7" width="150" height="150" stroke="black"/>
<path d="M110.518 42.8959L155.172 132.23C160.86 143.61 152.587 157 139.867 157H110.518M110.518 42.8959L97.3042 16.4613C90.9985 3.84624 73.0015 3.84625 66.6958 16.4613L8.82849 132.23C3.14007 143.61 11.4129 157 24.1326 157H53.4824M110.518 42.8959L82 71.422M53.4824 157H110.518M53.4824 157L24.9648 128.474M110.518 157L53.4824 99.948M82 71.422L154.72 144.163M82 71.422L53.4824 99.948M9.28009 144.163L24.9648 128.474M24.9648 128.474L53.4824 99.948" stroke="url(#paint0_linear_610_5206)" stroke-width="13" stroke-linecap="round" stroke-linejoin="round"/>
<defs>
<linearGradient id="paint0_linear_610_5206" x1="7" y1="157" x2="157" y2="7" gradientUnits="userSpaceOnUse">
<stop stop-color="#82DBF7"/>
<stop offset="1" stop-color="#B6F09C"/>
</linearGradient>
</defs>
</svg>
